<svg width="27" height="27" viewBox="0 0 27 27" fill="none" xmlns="http://www.w3.org/2000/svg">
<path d="M11.3452 10.3667L16.9233 13.5366L11.3452 16.7065V10.3667ZM26.6499 3.2124V23.8374C26.6499 25.3901 25.3901 26.6499 23.8374 26.6499H3.2124C1.65967 26.6499 0.399902 25.3901 0.399902 23.8374V3.2124C0.399902 1.65967 1.65967 0.399902 3.2124 0.399902H23.8374C25.3901 0.399902 26.6499 1.65967 26.6499 3.2124ZM24.189 13.5425C24.189 13.5425 24.189 10.0503 23.7437 8.37451C23.4976 7.44873 22.7769 6.72217 21.8569 6.47607C20.1987 6.0249 13.5249 6.0249 13.5249 6.0249C13.5249 6.0249 6.85107 6.0249 5.19287 6.47607C4.27295 6.72217 3.55225 7.44873 3.30615 8.37451C2.86084 10.0444 2.86084 13.5425 2.86084 13.5425C2.86084 13.5425 2.86084 17.0347 3.30615 18.7104C3.55225 19.6362 4.27295 20.3335 5.19287 20.5796C6.85107 21.0249 13.5249 21.0249 13.5249 21.0249C13.5249 21.0249 20.1987 21.0249 21.8569 20.5737C22.7769 20.3276 23.4976 19.6304 23.7437 18.7046C24.189 17.0347 24.189 13.5425 24.189 13.5425Z" fill="black" fill-opacity="0.8"/>
</svg>
